HIERARCHY
ROOT Hips
{
	OFFSET 3.281330 79.528656 0.112747
	CHANNELS 6 Xposition Yposition Zposition Zrotation Yrotation Xrotation 
	JOINT Spine
	{
		OFFSET 0.000000 8.814246 -2.080107
		CHANNELS 3 Zrotation Yrotation Xrotation
		JOINT Spine1
		{
			OFFSET 0.000000 8.844141 -0.000000
			CHANNELS 3 Zrotation Yrotation Xrotation
			JOINT Spine2
			{
				OFFSET -0.000000 11.682268 -0.000000
				CHANNELS 3 Zrotation Yrotation Xrotation
				JOINT Spine3
				{
					OFFSET 0.000000 11.746700 0.000000
					CHANNELS 3 Zrotation Yrotation Xrotation
					JOINT Neck
					{
						OFFSET 0.000000 17.658264 0.000000
						CHANNELS 3 Zrotation Yrotation Xrotation
						JOINT Neck1
						{
							OFFSET -0.000000 5.101515 -0.000000
							CHANNELS 3 Zrotation Yrotation Xrotation
							JOINT Head
							{
								OFFSET 0.000000 5.101515 -0.000000
								CHANNELS 3 Zrotation Yrotation Xrotation
								JOINT HeadEnd
								{
									OFFSET 0.000000 11.655085 -0.000000
									CHANNELS 3 Zrotation Yrotation Xrotation
									End Site
									{
										OFFSET 0.000000 0.000000 0.000000
									}
								}
							}
						}
					}
					JOINT RightShoulder
					{
						OFFSET -2.625389 11.175210 0.000000
						CHANNELS 3 Zrotation Yrotation Xrotation
						JOINT RightArm
						{
							OFFSET -0.000000 10.434715 -0.000000
							CHANNELS 3 Zrotation Yrotation Xrotation
							JOINT RightForeArm
							{
								OFFSET 0.000000 29.628420 0.000000
								CHANNELS 3 Zrotation Yrotation Xrotation
								JOINT RightHand
								{
									OFFSET 0.000000 22.857611 0.000000
									CHANNELS 3 Zrotation Yrotation Xrotation
									JOINT RightHandThumb1
									{
										OFFSET -2.867323 3.959563 2.944291
										CHANNELS 3 Zrotation Yrotation Xrotation
										JOINT RightHandThumb2
										{
											OFFSET -0.000000 3.350399 -0.000000
											CHANNELS 3 Zrotation Yrotation Xrotation
											JOINT RightHandThumb3
											{
												OFFSET 0.000000 3.756509 0.000000
												CHANNELS 3 Zrotation Yrotation Xrotation
												JOINT RightHandThumb4
												{
													OFFSET -0.000000 3.147345 -0.000000
													CHANNELS 3 Zrotation Yrotation Xrotation
													End Site
													{
														OFFSET 0.000000 0.000000 0.000000
													}
												}
											}
										}
									}
									JOINT RightHandIndex1
									{
										OFFSET -0.086752 10.030893 2.345280
										CHANNELS 3 Zrotation Yrotation Xrotation
										JOINT RightHandIndex2
										{
											OFFSET -0.000000 4.061090 -0.000000
											CHANNELS 3 Zrotation Yrotation Xrotation
											JOINT RightHandIndex3
											{
												OFFSET 0.000000 3.248873 0.000000
												CHANNELS 3 Zrotation Yrotation Xrotation
												JOINT RightHandIndex4
												{
													OFFSET -0.000000 2.639709 0.000000
													CHANNELS 3 Zrotation Yrotation Xrotation
													End Site
													{
														OFFSET 0.000000 0.000000 0.000000
													}
												}
											}
										}
									}
									JOINT RightHandMiddle1
									{
										OFFSET 0.104102 9.502952 0.006768
										CHANNELS 3 Zrotation Yrotation Xrotation
										JOINT RightHandMiddle2
										{
											OFFSET -0.000000 4.568727 -0.000000
											CHANNELS 3 Zrotation Yrotation Xrotation
											JOINT RightHandMiddle3
											{
												OFFSET 0.000000 3.654981 0.000000
												CHANNELS 3 Zrotation Yrotation Xrotation
												JOINT RightHandMiddle4
												{
													OFFSET 0.000000 2.741236 0.000000
													CHANNELS 3 Zrotation Yrotation Xrotation
													End Site
													{
														OFFSET 0.000000 0.000000 0.000000
													}
												}
											}
										}
									}
									JOINT RightHandRing1
									{
										OFFSET 0.086752 8.921708 -2.267442
										CHANNELS 3 Zrotation Yrotation Xrotation
										JOINT RightHandRing2
										{
											OFFSET 0.000000 4.061090 0.000000
											CHANNELS 3 Zrotation Yrotation Xrotation
											JOINT RightHandRing3
											{
												OFFSET -0.000000 3.654981 -0.000000
												CHANNELS 3 Zrotation Yrotation Xrotation
												JOINT RightHandRing4
												{
													OFFSET 0.000000 2.741236 0.000000
													CHANNELS 3 Zrotation Yrotation Xrotation
													End Site
													{
														OFFSET 0.000000 0.000000 0.000000
													}
												}
											}
										}
									}
									JOINT RightHandPinky1
									{
										OFFSET -0.173504 7.976997 -4.467199
										CHANNELS 3 Zrotation Yrotation Xrotation
										JOINT RightHandPinky2
										{
											OFFSET 0.000000 3.350399 0.000000
											CHANNELS 3 Zrotation Yrotation Xrotation
											JOINT RightHandPinky3
											{
												OFFSET 0.000000 2.842763 0.000000
												CHANNELS 3 Zrotation Yrotation Xrotation
												JOINT RightHandPinky4
												{
													OFFSET 0.000000 2.639709 -0.000000
													CHANNELS 3 Zrotation Yrotation Xrotation
													End Site
													{
														OFFSET 0.000000 0.000000 0.000000
													}
												}
											}
										}
									}
									JOINT RightForeArmEnd
									{
										OFFSET 0.000000 0.000000 0.000000
										CHANNELS 3 Zrotation Yrotation Xrotation
										End Site
										{
											OFFSET 0.000000 0.000000 0.000000
										}
									}
								}
								JOINT RightArmEnd
								{
									OFFSET 0.000000 0.000000 0.000000
									CHANNELS 3 Zrotation Yrotation Xrotation
									End Site
									{
										OFFSET 0.000000 0.000000 0.000000
									}
								}
							}
						}
					}
					JOINT LeftShoulder
					{
						OFFSET 2.625389 11.175210 0.000000
						CHANNELS 3 Zrotation Yrotation Xrotation
						JOINT LeftArm
						{
							OFFSET 0.000000 10.813635 -0.000000
							CHANNELS 3 Zrotation Yrotation Xrotation
							JOINT LeftForeArm
							{
								OFFSET 0.000000 28.724781 0.000000
								CHANNELS 3 Zrotation Yrotation Xrotation
								JOINT LeftHand
								{
									OFFSET 0.644384 25.716167 -0.328871
									CHANNELS 3 Zrotation Yrotation Xrotation
									JOINT LeftHandThumb1
									{
										OFFSET 2.867323 3.959563 2.944291
										CHANNELS 3 Zrotation Yrotation Xrotation
										JOINT LeftHandThumb2
										{
											OFFSET 0.000000 3.350399 -0.000000
											CHANNELS 3 Zrotation Yrotation Xrotation
											JOINT LeftHandThumb3
											{
												OFFSET -0.000000 3.756509 0.000000
												CHANNELS 3 Zrotation Yrotation Xrotation
												JOINT LeftHandThumb4
												{
													OFFSET -0.000000 3.100000 0.000000
													CHANNELS 3 Zrotation Yrotation Xrotation
													End Site
													{
														OFFSET 0.000000 0.000000 0.000000
													}
												}
											}
										}
									}
									JOINT LeftHandIndex1
									{
										OFFSET 0.086752 10.030893 2.345280
										CHANNELS 3 Zrotation Yrotation Xrotation
										JOINT LeftHandIndex2
										{
											OFFSET 0.000000 4.061090 -0.000000
											CHANNELS 3 Zrotation Yrotation Xrotation
											JOINT LeftHandIndex3
											{
												OFFSET -0.000000 3.248873 -0.000000
												CHANNELS 3 Zrotation Yrotation Xrotation
												JOINT LeftHandIndex4
												{
													OFFSET 0.000000 2.639709 -0.000000
													CHANNELS 3 Zrotation Yrotation Xrotation
													End Site
													{
														OFFSET 0.000000 0.000000 0.000000
													}
												}
											}
										}
									}
									JOINT LeftHandMiddle1
									{
										OFFSET -0.104102 9.502952 0.006768
										CHANNELS 3 Zrotation Yrotation Xrotation
										JOINT LeftHandMiddle2
										{
											OFFSET 0.000000 4.568727 -0.000000
											CHANNELS 3 Zrotation Yrotation Xrotation
											JOINT LeftHandMiddle3
											{
												OFFSET 0.000000 3.654981 -0.000000
												CHANNELS 3 Zrotation Yrotation Xrotation
												JOINT LeftHandMiddle4
												{
													OFFSET 0.000000 2.741236 0.000000
													CHANNELS 3 Zrotation Yrotation Xrotation
													End Site
													{
														OFFSET 0.000000 0.000000 0.000000
													}
												}
											}
										}
									}
									JOINT LeftHandRing1
									{
										OFFSET -0.086752 8.921708 -2.267442
										CHANNELS 3 Zrotation Yrotation Xrotation
										JOINT LeftHandRing2
										{
											OFFSET 0.000000 4.061090 -0.000000
											CHANNELS 3 Zrotation Yrotation Xrotation
											JOINT LeftHandRing3
											{
												OFFSET -0.000000 3.654981 0.000000
												CHANNELS 3 Zrotation Yrotation Xrotation
												JOINT LeftHandRing4
												{
													OFFSET -0.000000 2.741236 0.000000
													CHANNELS 3 Zrotation Yrotation Xrotation
													End Site
													{
														OFFSET 0.000000 0.000000 0.000000
													}
												}
											}
										}
									}
									JOINT LeftHandPinky1
									{
										OFFSET 0.173504 7.976997 -4.467199
										CHANNELS 3 Zrotation Yrotation Xrotation
										JOINT LeftHandPinky2
										{
											OFFSET -0.000000 3.350399 0.000000
											CHANNELS 3 Zrotation Yrotation Xrotation
											JOINT LeftHandPinky3
											{
												OFFSET 0.000000 2.842763 0.000000
												CHANNELS 3 Zrotation Yrotation Xrotation
												JOINT LeftHandPinky4
												{
													OFFSET 0.000000 2.639709 0.000000
													CHANNELS 3 Zrotation Yrotation Xrotation
													End Site
													{
														OFFSET 0.000000 0.000000 0.000000
													}
												}
											}
										}
									}
									JOINT LeftForeArmEnd
									{
										OFFSET 0.000000 0.000000 0.000000
										CHANNELS 3 Zrotation Yrotation Xrotation
										End Site
										{
											OFFSET 0.000000 0.000000 0.000000
										}
									}
								}
								JOINT LeftArmEnd
								{
									OFFSET 0.000000 0.000000 0.000000
									CHANNELS 3 Zrotation Yrotation Xrotation
									End Site
									{
										OFFSET 0.000000 0.000000 0.000000
									}
								}
							}
						}
					}
				}
			}
		}
	}
	JOINT RightUpLeg
	{
		OFFSET -11.289943 0.000000 0.000000
		CHANNELS 3 Zrotation Yrotation Xrotation
		JOINT RightLeg
		{
			OFFSET 0.000000 -38.200325 -0.000000
			CHANNELS 3 Zrotation Yrotation Xrotation
			JOINT RightFoot
			{
				OFFSET -0.000000 -39.900856 0.000000
				CHANNELS 3 Zrotation Yrotation Xrotation
				JOINT RightToeBase
				{
					OFFSET -0.000000 0.000000 15.261641
					CHANNELS 3 Zrotation Yrotation Xrotation
					JOINT RightToeBaseEnd
					{
						OFFSET -0.000000 -0.000000 7.370709
						CHANNELS 3 Zrotation Yrotation Xrotation
						End Site
						{
							OFFSET 0.000000 0.000000 0.000000
						}
					}
				}
				JOINT RightLegEnd
				{
					OFFSET 0.000000 0.000000 0.000000
					CHANNELS 3 Zrotation Yrotation Xrotation
					End Site
					{
						OFFSET 0.000000 0.000000 0.000000
					}
				}
			}
			JOINT RightUpLegEnd
			{
				OFFSET 0.000000 0.000000 0.000000
				CHANNELS 3 Zrotation Yrotation Xrotation
				End Site
				{
					OFFSET 0.000000 0.000000 0.000000
				}
			}
		}
	}
	JOINT LeftUpLeg
	{
		OFFSET 11.315661 -0.000000 0.000000
		CHANNELS 3 Zrotation Yrotation Xrotation
		JOINT LeftLeg
		{
			OFFSET 0.000000 -38.200325 0.000000
			CHANNELS 3 Zrotation Yrotation Xrotation
			JOINT LeftFoot
			{
				OFFSET -0.000000 -39.900856 -0.000000
				CHANNELS 3 Zrotation Yrotation Xrotation
				JOINT LeftToeBase
				{
					OFFSET -0.000000 0.000000 15.261641
					CHANNELS 3 Zrotation Yrotation Xrotation
					JOINT LeftToeBaseEnd
					{
						OFFSET -0.000000 0.000000 7.539996
						CHANNELS 3 Zrotation Yrotation Xrotation
						End Site
						{
							OFFSET 0.000000 0.000000 0.000000
						}
					}
				}
				JOINT LeftLegEnd
				{
					OFFSET 0.000000 0.000000 0.000000
					CHANNELS 3 Zrotation Yrotation Xrotation
					End Site
					{
						OFFSET 0.000000 0.000000 0.000000
					}
				}
			}
			JOINT LeftUpLegEnd
			{
				OFFSET 0.000000 0.000000 0.000000
				CHANNELS 3 Zrotation Yrotation Xrotation
				End Site
				{
					OFFSET 0.000000 0.000000 0.000000
				}
			}
		}
	}
}
MOTION
Frames: 4
Frame Time: 0.016667
14.198627 81.772064 9.397682 0.243477 -3.817582 -5.063509 -2.472600 0.521421 12.688598 -2.170122 1.072173 17.676094 0.761002 0.284835 10.764447 1.818903 -0.048268 1.969973 1.006570 -5.562821 1.119151 4.571621 -2.409590 -11.258933 0.861025 -3.819300 -17.231918 0.000000 0.000000 0.000000 88.278549 0.438327 8.538939 69.925331 -28.285587 -0.422193 -0.223411 17.337751 85.737099 -41.478386 -29.848690 19.258347 5.482911 -1.234906 42.240009 0.000018 0.000019 -13.442920 0.000029 0.000045 -9.433264 0.000013 0.000003 -0.000005 -1.662739 16.714006 -6.120634 1.354925 -1.111766 -0.023050 1.328437 -0.110053 -0.055095 -0.000018 0.000005 -0.000012 -1.985111 6.853096 -9.766170 1.181066 -1.058971 0.027797 1.237040 -0.072163 0.037332 0.000032 -0.000143 0.000009 0.272847 -8.780210 -14.972858 0.742905 2.090067 -0.085560 0.818576 0.104936 -0.028600 0.000032 0.000180 0.000002 4.254783 -24.767464 -19.900106 0.401459 4.193298 -0.196127 0.617832 0.230221 -0.009569 -0.000090 -0.000009 -0.000020 0.000000 0.000000 0.000000 0.000000 0.000000 0.000000 -86.608963 -0.889924 8.400671 -72.382812 14.489073 -5.400897 -3.656562 -22.249191 88.437691 48.408276 21.109692 18.045671 -7.306927 1.425256 41.507397 -0.000007 0.000008 -17.227375 0.000172 0.000002 -11.989400 0.002579 -0.000030 0.000815 -3.755329 16.249653 -3.601902 -1.181432 -1.090700 0.135122 -1.433927 -0.103469 0.080091 -0.000030 -0.001900 0.000030 -3.458936 6.796985 -8.258375 -1.092673 -1.047351 0.047560 -1.349220 -0.058233 0.051418 0.000759 -0.000065 -0.000227 1.302195 -8.789437 -16.079657 -1.581968 2.071190 -0.126068 -1.499006 0.049182 -0.063306 -0.002465 0.000015 0.000004 11.858820 -24.413736 -26.330910 -1.250903 4.138179 -0.243928 -1.114576 0.105383 -0.176907 -0.000339 -0.000014 -0.000020 0.000000 0.000000 0.000000 0.000000 0.000000 0.000000 -11.967416 -0.943542 -17.199093 -0.577185 -0.450581 50.569252 5.186822 -11.418963 11.601024 0.631415 -0.550572 -31.669247 0.000000 0.000000 0.000000 0.000000 0.000000 0.000000 0.000000 0.000000 0.000000 -1.490144 4.799305 -14.713415 0.338515 0.290294 46.504425 0.472980 18.143847 4.692515 -0.924875 0.177035 -29.089382 0.000000 0.000000 0.000000 0.000000 0.000000 0.000000 0.000000 0.000000 0.000000 
14.204830 81.767433 9.407244 0.172463 -4.255192 -5.086587 -2.479186 0.523540 12.753507 -2.216743 1.084082 17.714092 0.742959 0.191764 10.803459 1.818669 -0.084339 1.956928 1.249702 -5.907201 1.178067 4.559009 -2.650188 -11.242409 0.924316 -3.824616 -17.225491 0.000000 0.000000 0.000000 88.359886 0.458233 8.551754 69.881821 -28.525869 -0.512407 -0.246453 17.347593 85.646774 -41.372242 -29.778051 19.041679 5.478601 -1.233870 42.239346 0.000017 0.000019 -13.447448 0.000028 0.000045 -9.443478 0.000013 0.000003 -0.000006 -1.662850 16.701817 -6.153182 1.353186 -1.114912 -0.015864 1.328390 -0.112946 -0.048373 -0.000017 0.000006 -0.000012 -1.967459 6.849432 -9.778966 1.173645 -1.060734 0.030940 1.228355 -0.073103 0.040158 0.000031 -0.000137 0.000010 0.301181 -8.780702 -14.960257 0.745348 2.092007 -0.092317 0.816342 0.106216 -0.033344 0.000031 0.000245 0.000002 4.282166 -24.781555 -19.861233 0.420845 4.199444 -0.213699 0.640413 0.235111 -0.023459 -0.000058 -0.000009 -0.000019 0.000000 0.000000 0.000000 0.000000 0.000000 0.000000 -86.577568 -0.900286 8.488388 -72.323875 14.661789 -5.356503 -3.628137 -22.152256 88.478058 48.461571 21.296303 18.101553 -7.290052 1.423288 41.515377 -0.000007 0.000008 -17.188425 0.000171 0.000002 -11.954666 0.002558 -0.000030 0.000862 -3.716884 16.231760 -3.560597 -1.128218 -1.092213 0.130327 -1.378540 -0.105317 0.076004 -0.000030 -0.001920 0.000030 -3.414787 6.790505 -8.230287 -1.043467 -1.047919 0.045685 -1.294992 -0.058999 0.049522 0.000630 -0.000066 -0.000221 1.334079 -8.782871 -16.058800 -1.547683 2.072483 -0.121686 -1.463017 0.050214 -0.060115 -0.002411 0.000015 0.000004 11.870543 -24.399979 -26.304226 -1.238094 4.141724 -0.230168 -1.099643 0.109348 -0.166070 -0.000301 -0.000013 -0.000020 0.000000 0.000000 0.000000 0.000000 0.000000 0.000000 -11.898333 -0.963064 -17.257765 -0.573901 -0.447403 50.519154 5.129241 -11.297325 11.644712 0.638514 -0.535528 -31.640505 0.000000 0.000000 0.000000 0.000000 0.000000 0.000000 0.000000 0.000000 0.000000 -1.400910 4.976195 -14.680154 0.338267 0.295814 46.566200 0.467063 18.365137 4.660355 -0.916005 0.178989 -29.078959 0.000000 0.000000 0.000000 0.000000 0.000000 0.000000 0.000000 0.000000 0.000000 
14.190944 81.756950 9.419281 0.108467 -4.702179 -5.106865 -2.480215 0.523412 12.819547 -2.266655 1.095278 17.746454 0.732908 0.094510 10.843179 1.819741 -0.122943 1.942713 1.473216 -6.231940 1.238281 4.545166 -2.877517 -11.227936 0.981950 -3.830615 -17.226616 0.000000 0.000000 0.000000 88.441971 0.479633 8.556823 69.838120 -28.783516 -0.608166 -0.267668 17.343292 85.579475 -41.291149 -29.717096 18.865444 5.476447 -1.232985 42.237717 0.000017 0.000019 -13.457008 0.000028 0.000045 -9.456678 0.000013 0.000003 -0.000007 -1.649711 16.689278 -6.187994 1.357815 -1.118118 -0.008234 1.335618 -0.115937 -0.041315 -0.000017 0.000006 -0.000012 -1.933356 6.845526 -9.791620 1.173417 -1.062504 0.034234 1.227475 -0.074070 0.043068 0.000031 -0.000132 0.000010 0.348555 -8.780538 -14.938660 0.752738 2.093998 -0.099373 0.819286 0.107571 -0.038404 0.000031 0.000305 0.000002 4.333000 -24.792316 -19.811214 0.444152 4.205777 -0.232034 0.667805 0.240367 -0.037970 -0.000028 -0.000008 -0.000018 0.000000 0.000000 0.000000 0.000000 0.000000 0.000000 -86.546768 -0.912221 8.566493 -72.276085 14.827785 -5.329739 -3.600212 -22.059027 88.503082 48.509937 21.505781 18.165930 -7.274541 1.421584 41.522194 -0.000007 0.000007 -17.155308 0.000170 0.000003 -11.924043 0.002536 -0.000030 0.000899 -3.684613 16.215281 -3.519439 -1.079977 -1.093624 0.125347 -1.327841 -0.107060 0.071580 -0.000030 -0.001938 0.000030 -3.380974 6.784364 -8.203726 -0.999175 -1.048395 0.043743 -1.245734 -0.059731 0.047578 0.000507 -0.000066 -0.000213 1.358173 -8.775688 -16.033333 -1.513643 2.073806 -0.116859 -1.428021 0.051269 -0.056603 -0.002353 0.000016 0.000004 11.873940 -24.382851 -26.265926 -1.220526 4.145487 -0.214294 -1.079945 0.113545 -0.153797 -0.000261 -0.000013 -0.000021 0.000000 0.000000 0.000000 0.000000 0.000000 0.000000 -11.821343 -0.975381 -17.324986 -0.570184 -0.443143 50.487427 5.064646 -11.180583 11.662040 0.644828 -0.521010 -31.606606 0.000000 0.000000 0.000000 0.000000 0.000000 0.000000 0.000000 0.000000 0.000000 -1.307487 5.144352 -14.652824 0.338442 0.301697 46.651970 0.450537 18.581116 4.619421 -0.907644 0.179627 -29.070171 0.000000 0.000000 0.000000 0.000000 0.000000 0.000000 0.000000 0.000000 0.000000 
14.156961 81.740883 9.432775 0.050389 -5.156541 -5.123335 -2.473752 0.521010 12.885653 -2.319431 1.105996 17.774538 0.731227 -0.005333 10.883283 1.822493 -0.163201 1.928157 1.673787 -6.536107 1.297081 4.529330 -3.091610 -11.217152 1.034036 -3.837206 -17.234949 0.000000 0.000000 0.000000 88.521217 0.501871 8.554785 69.796104 -29.044653 -0.704453 -0.286709 17.327692 85.529007 -41.233158 -29.649611 18.733246 5.475520 -1.232240 42.235504 0.000017 0.000019 -13.468402 0.000028 0.000045 -9.470641 0.000013 0.000003 -0.000008 -1.628157 16.675806 -6.223908 1.366804 -1.121276 -0.000595 1.348586 -0.118970 -0.034307 -0.000017 0.000006 -0.000012 -1.886405 6.841088 -9.803090 1.178368 -1.064224 0.037452 1.232287 -0.075036 0.045888 0.000031 -0.000128 0.000010 0.412238 -8.779310 -14.907818 0.762941 2.095953 -0.106364 0.825193 0.108966 -0.043467 0.000031 0.000358 0.000002 4.405502 -24.798687 -19.750526 0.468853 4.212102 -0.250100 0.697301 0.245820 -0.052264 -0.000003 -0.000008 -0.000018 0.000000 0.000000 0.000000 0.000000 0.000000 0.000000 -86.515572 -0.925309 8.635214 -72.240822 14.980030 -5.318565 -3.573491 -21.975887 88.512817 48.551975 21.735638 18.239754 -7.261645 1.420237 41.527405 -0.000008 0.000007 -17.130512 0.000168 0.000004 -11.899307 0.002513 -0.000030 0.000925 -3.665811 16.200846 -3.482711 -1.040255 -1.094844 0.120872 -1.285689 -0.108589 0.067459 -0.000030 -0.001953 0.000030 -3.364626 6.778811 -8.181981 -0.963494 -1.048754 0.042035 -1.205016 -0.060390 0.045815 0.000392 -0.000066 -0.000206 1.366571 -8.768312 -16.005928 -1.483599 2.075093 -0.112031 -1.397421 0.052269 -0.053138 -0.002289 0.000016 0.000004 11.859847 -24.363903 -26.219452 -1.201565 4.149288 -0.197623 -1.058889 0.117771 -0.141092 -0.000217 -0.000013 -0.000022 0.000000 0.000000 0.000000 0.000000 0.000000 0.000000 -11.735357 -0.982262 -17.401852 -0.566092 -0.437915 50.476105 4.993747 -11.068721 11.653058 0.650746 -0.507385 -31.568012 0.000000 0.000000 0.000000 0.000000 0.000000 0.000000 0.000000 0.000000 0.000000 -1.208813 5.303933 -14.635877 0.339050 0.308126 46.760033 0.423010 18.790352 4.572399 -0.899525 0.179014 -29.064783 0.000000 0.000000 0.000000 0.000000 0.000000 0.000000 0.000000 0.000000 0.000000 
